ffmpeg started on 2025-06-06 at 19:21:06
Report written to "D:\Convert\FFMetrics\reports\psnr_report-6.txt"
Log level: 32
Command line:
ffmpeg -hide_banner -nostdin -i "G:\\\xc0\xed\xe8\xec\xe5\\\xce\xed\xe3\xee\xe8\xed\xe3\xe8\\!_36_\xce\xf1\xe5\xed\xfc_2024\\DreamCast\\\xd0\xee\xed \xca\xe0\xec\xee\xed\xee\xf5\xe0\xf1\xe8 - \xcd\xe5\xe2\xec\xe5\xed\xff\xe5\xec\xfb\xe9 \xe4\xe5\xf2\xe5\xea\xf2\xe8\xe2\\\xd2\xc2-1\\[DC] Kamonohashi Ron no Kindan Suiri - 07_Telegram_HEVC.mkv" -i "G:\\\xc0\xed\xe8\xec\xe5\\\xce\xed\xe3\xee\xe8\xed\xe3\xe8\\!_36_\xce\xf1\xe5\xed\xfc_2024\\DreamCast\\\xd0\xee\xed \xca\xe0\xec\xee\xed\xee\xf5\xe0\xf1\xe8 - \xcd\xe5\xe2\xec\xe5\xed\xff\xe5\xec\xfb\xe9 \xe4\xe5\xf2\xe5\xea\xf2\xe8\xe2\\\xd2\xc2-1\\[DC] Kamonohashi Ron no Kindan Suiri - 07_Telegram.mp4" -lavfi "[0:v]settb=AVTB,setpts=PTS-STARTPTS,format=pix_fmts=yuv420p10,fps=24000/1001,scale=1920:1080:flags=bicubic[main];[1:v]settb=AVTB,setpts=PTS-STARTPTS,format=pix_fmts=yuv420p,fps=24000/1001,scale=1920:1080:flags=bicubic[ref];[main][ref]psnr=eof_action=endall:stats_file='D\\:/Convert/FFMetrics/logs/psnr_logfile-6.txt'" -f null -
Input #0, matroska,webm, from 'G:\Аниме\Онгоинги\!_36_Осень_2024\DreamCast\Рон Камонохаси - Невменяемый детектив\ТВ-1\[DC] Kamonohashi Ron no Kindan Suiri - 07_Telegram_HEVC.mkv':
  Metadata:
    COMPATIBLE_BRANDS: isomiso2avc1mp41
    MAJOR_BRAND     : isom
    MINOR_VERSION   : 512
    ENCODER         : Lavf61.7.100
  Duration: 00:23:46.77, start: -0.021000, bitrate: 803 kb/s
  Stream #0:0: Video: hevc (Main 10), yuv420p10le(tv, bt709, progressive), 1920x1080 [SAR 1:1 DAR 16:9], 23.98 fps, 23.98 tbr, 1k tbn (default)
      Metadata:
        HANDLER_NAME    : VideoHandler
        VENDOR_ID       : [0][0][0][0]
        ENCODER         : Lavc61.19.100 libx265
        BPS             : 605969
        DURATION        : 00:23:46.633708333
        NUMBER_OF_FRAMES: 34205
        NUMBER_OF_BYTES : 108061984
        _STATISTICS_WRITING_APP: mkvpropedit v66.0.0 ('Josie') 64-bit
        _STATISTICS_WRITING_DATE_UTC: 2025-06-03 15:10:33
        _STATISTICS_TAGS: BPS DURATION NUMBER_OF_FRAMES NUMBER_OF_BYTES
  Stream #0:1: Audio: aac (LC), 48000 Hz, stereo, fltp (default)
      Metadata:
        HANDLER_NAME    : SoundHandler
        VENDOR_ID       : [0][0][0][0]
        ENCODER         : Lavc61.19.100 aac
        BPS             : 193719
        DURATION        : 00:23:46.773000000
        NUMBER_OF_FRAMES: 66881
        NUMBER_OF_BYTES : 34549143
        _STATISTICS_WRITING_APP: mkvpropedit v66.0.0 ('Josie') 64-bit
        _STATISTICS_WRITING_DATE_UTC: 2025-06-03 15:10:33
        _STATISTICS_TAGS: BPS DURATION NUMBER_OF_FRAMES NUMBER_OF_BYTES
Input #1, mov,mp4,m4a,3gp,3g2,mj2, from 'G:\Аниме\Онгоинги\!_36_Осень_2024\DreamCast\Рон Камонохаси - Невменяемый детектив\ТВ-1\[DC] Kamonohashi Ron no Kindan Suiri - 07_Telegram.mp4':
  Metadata:
    major_brand     : isom
    minor_version   : 512
    compatible_brands: isomiso2avc1mp41
    encoder         : Lavf60.12.100
  Duration: 00:23:46.72, start: 0.000000, bitrate: 3424 kb/s
  Stream #1:0[0x1](und): Video: h264 (High) (avc1 / 0x31637661), yuv420p(tv, bt709, progressive), 1920x1080 [SAR 1:1 DAR 16:9], 3276 kb/s, 23.98 fps, 23.98 tbr, 24k tbn (default)
      Metadata:
        handler_name    : VideoHandler
        vendor_id       : [0][0][0][0]
        encoder         : Lavc60.26.100 h264_qsv
  Stream #1:1[0x2](und): Audio: aac (HE-AACv2) (mp4a / 0x6134706D), 48000 Hz, stereo, fltp, 144 kb/s (default)
      Metadata:
        handler_name    : SoundHandler
        vendor_id       : [0][0][0][0]
Stream mapping:
  Stream #0:0 (hevc) -> settb:default
  Stream #1:0 (h264) -> settb:default
  psnr:default -> Stream #0:0 (wrapped_avframe)
  Stream #0:1 -> #0:1 (aac (native) -> pcm_s16le (native))
Output #0, null, to 'pipe:':
  Metadata:
    COMPATIBLE_BRANDS: isomiso2avc1mp41
    MAJOR_BRAND     : isom
    MINOR_VERSION   : 512
    encoder         : Lavf61.7.100
  Stream #0:0: Video: wrapped_avframe, yuv420p10le(tv, bt709, progressive), 1920x1080 [SAR 1:1 DAR 16:9], q=2-31, 200 kb/s, 23.98 fps, 23.98 tbn
      Metadata:
        encoder         : Lavc61.19.100 wrapped_avframe
  Stream #0:1: Audio: pcm_s16le, 48000 Hz, stereo, s16, 1536 kb/s (default)
      Metadata:
        HANDLER_NAME    : SoundHandler
        VENDOR_ID       : [0][0][0][0]
        _STATISTICS_TAGS: BPS DURATION NUMBER_OF_FRAMES NUMBER_OF_BYTES
        BPS             : 193719
        DURATION        : 00:23:46.773000000
        NUMBER_OF_FRAMES: 66881
        NUMBER_OF_BYTES : 34549143
        _STATISTICS_WRITING_APP: mkvpropedit v66.0.0 ('Josie') 64-bit
        _STATISTICS_WRITING_DATE_UTC: 2025-06-03 15:10:33
        encoder         : Lavc61.19.100 pcm_s16le
frame=  180 fps=0.0 q=-0.0 size=N/A time=00:00:07.50 bitrate=N/A speed=14.8x    frame=  422 fps=410 q=-0.0 size=N/A time=00:00:17.60 bitrate=N/A speed=17.1x    frame=  667 fps=434 q=-0.0 size=N/A time=00:00:27.81 bitrate=N/A speed=18.1x    frame=  916 fps=444 q=-0.0 size=N/A time=00:00:38.20 bitrate=N/A speed=18.5x    frame= 1135 fps=441 q=-0.0 size=N/A time=00:00:47.33 bitrate=N/A speed=18.4x    frame= 1367 fps=443 q=-0.0 size=N/A time=00:00:57.01 bitrate=N/A speed=18.5x    frame= 1591 fps=441 q=-0.0 size=N/A time=00:01:06.35 bitrate=N/A speed=18.4x    frame= 1710 fps=415 q=-0.0 size=N/A time=00:01:11.32 bitrate=N/A speed=17.3x    frame= 1926 fps=415 q=-0.0 size=N/A time=00:01:20.33 bitrate=N/A speed=17.3x    frame= 2087 fps=405 q=-0.0 size=N/A time=00:01:27.04 bitrate=N/A speed=16.9x    frame= 2339 fps=413 q=-0.0 size=N/A time=00:01:37.55 bitrate=N/A speed=17.2x    frame= 2604 fps=421 q=-0.0 size=N/A time=00:01:48.60 bitrate=N/A speed=17.6x    frame= 2870 fps=429 q=-0.0 size=N/A time=00:01:59.70 bitrate=N/A speed=17.9x    frame= 3070 fps=425 q=-0.0 size=N/A time=00:02:08.04 bitrate=N/A speed=17.7x    frame= 3305 fps=428 q=-0.0 size=N/A time=00:02:17.84 bitrate=N/A speed=17.8x    frame= 3553 fps=431 q=-0.0 size=N/A time=00:02:28.18 bitrate=N/A speed=  18x    frame= 3804 fps=434 q=-0.0 size=N/A time=00:02:38.65 bitrate=N/A speed=18.1x    frame= 4047 fps=436 q=-0.0 size=N/A time=00:02:48.79 bitrate=N/A speed=18.2x    frame= 4270 fps=436 q=-0.0 size=N/A time=00:02:58.09 bitrate=N/A speed=18.2x    frame= 4507 fps=438 q=-0.0 size=N/A time=00:03:07.97 bitrate=N/A speed=18.2x    frame= 4726 fps=437 q=-0.0 size=N/A time=00:03:17.11 bitrate=N/A speed=18.2x    frame= 4974 fps=439 q=-0.0 size=N/A time=00:03:27.45 bitrate=N/A speed=18.3x    frame= 5223 fps=441 q=-0.0 size=N/A time=00:03:37.84 bitrate=N/A speed=18.4x    frame= 5470 fps=442 q=-0.0 size=N/A time=00:03:48.14 bitrate=N/A speed=18.4x    frame= 5732 fps=445 q=-0.0 size=N/A time=00:03:59.07 bitrate=N/A speed=18.6x    frame= 5962 fps=445 q=-0.0 size=N/A time=00:04:08.66 bitrate=N/A speed=18.5x    frame= 6174 fps=444 q=-0.0 size=N/A time=00:04:17.50 bitrate=N/A speed=18.5x    frame= 6429 fps=445 q=-0.0 size=N/A time=00:04:28.14 bitrate=N/A speed=18.6x    frame= 6702 fps=448 q=-0.0 size=N/A time=00:04:39.52 bitrate=N/A speed=18.7x    frame= 6987 fps=452 q=-0.0 size=N/A time=00:04:51.41 bitrate=N/A speed=18.8x    frame= 7249 fps=454 q=-0.0 size=N/A time=00:05:02.34 bitrate=N/A speed=18.9x    frame= 7521 fps=456 q=-0.0 size=N/A time=00:05:13.68 bitrate=N/A speed=  19x    frame= 7777 fps=457 q=-0.0 size=N/A time=00:05:24.36 bitrate=N/A speed=19.1x    frame= 8057 fps=460 q=-0.0 size=N/A time=00:05:36.04 bitrate=N/A speed=19.2x    frame= 8331 fps=462 q=-0.0 size=N/A time=00:05:47.47 bitrate=N/A speed=19.3x    frame= 8575 fps=462 q=-0.0 size=N/A time=00:05:57.64 bitrate=N/A speed=19.3x    frame= 8838 fps=463 q=-0.0 size=N/A time=00:06:08.61 bitrate=N/A speed=19.3x    frame= 9107 fps=465 q=-0.0 size=N/A time=00:06:19.83 bitrate=N/A speed=19.4x    frame= 9380 fps=466 q=-0.0 size=N/A time=00:06:31.22 bitrate=N/A speed=19.5x    frame= 9654 fps=468 q=-0.0 size=N/A time=00:06:42.65 bitrate=N/A speed=19.5x    frame= 9863 fps=467 q=-0.0 size=N/A time=00:06:51.36 bitrate=N/A speed=19.5x    frame=10111 fps=467 q=-0.0 size=N/A time=00:07:01.71 bitrate=N/A speed=19.5x    frame=10383 fps=468 q=-0.0 size=N/A time=00:07:13.05 bitrate=N/A speed=19.5x    frame=10655 fps=470 q=-0.0 size=N/A time=00:07:24.40 bitrate=N/A speed=19.6x    frame=10930 fps=471 q=-0.0 size=N/A time=00:07:35.87 bitrate=N/A speed=19.6x    frame=11162 fps=471 q=-0.0 size=N/A time=00:07:45.54 bitrate=N/A speed=19.6x    frame=11403 fps=471 q=-0.0 size=N/A time=00:07:55.60 bitrate=N/A speed=19.6x    frame=11670 fps=472 q=-0.0 size=N/A time=00:08:06.73 bitrate=N/A speed=19.7x    frame=11929 fps=472 q=-0.0 size=N/A time=00:08:17.53 bitrate=N/A speed=19.7x    frame=12208 fps=474 q=-0.0 size=N/A time=00:08:29.17 bitrate=N/A speed=19.8x    frame=12479 fps=474 q=-0.0 size=N/A time=00:08:40.47 bitrate=N/A speed=19.8x    frame=12716 fps=474 q=-0.0 size=N/A time=00:08:50.36 bitrate=N/A speed=19.8x    frame=12993 fps=475 q=-0.0 size=N/A time=00:09:01.91 bitrate=N/A speed=19.8x    frame=13278 fps=477 q=-0.0 size=N/A time=00:09:13.80 bitrate=N/A speed=19.9x    frame=13541 fps=478 q=-0.0 size=N/A time=00:09:24.77 bitrate=N/A speed=19.9x    frame=13787 fps=477 q=-0.0 size=N/A time=00:09:35.03 bitrate=N/A speed=19.9x    frame=14058 fps=478 q=-0.0 size=N/A time=00:09:46.33 bitrate=N/A speed=  20x    frame=14344 fps=480 q=-0.0 size=N/A time=00:09:58.26 bitrate=N/A speed=  20x    frame=14620 fps=481 q=-0.0 size=N/A time=00:10:09.77 bitrate=N/A speed=  20x    frame=14866 fps=481 q=-0.0 size=N/A time=00:10:20.03 bitrate=N/A speed=  20x    frame=15134 fps=481 q=-0.0 size=N/A time=00:10:31.21 bitrate=N/A speed=20.1x    frame=15388 fps=481 q=-0.0 size=N/A time=00:10:41.80 bitrate=N/A speed=20.1x    frame=15642 fps=482 q=-0.0 size=N/A time=00:10:52.40 bitrate=N/A speed=20.1x    frame=15893 fps=482 q=-0.0 size=N/A time=00:11:02.87 bitrate=N/A speed=20.1x    frame=16157 fps=482 q=-0.0 size=N/A time=00:11:13.88 bitrate=N/A speed=20.1x    frame=16424 fps=483 q=-0.0 size=N/A time=00:11:25.01 bitrate=N/A speed=20.1x    frame=16693 fps=483 q=-0.0 size=N/A time=00:11:36.23 bitrate=N/A speed=20.2x    frame=16919 fps=483 q=-0.0 size=N/A time=00:11:45.66 bitrate=N/A speed=20.1x    frame=17166 fps=483 q=-0.0 size=N/A time=00:11:55.96 bitrate=N/A speed=20.1x    frame=17444 fps=483 q=-0.0 size=N/A time=00:12:07.56 bitrate=N/A speed=20.2x    frame=17706 fps=484 q=-0.0 size=N/A time=00:12:18.48 bitrate=N/A speed=20.2x    frame=17950 fps=484 q=-0.0 size=N/A time=00:12:28.66 bitrate=N/A speed=20.2x    frame=18193 fps=483 q=-0.0 size=N/A time=00:12:38.79 bitrate=N/A speed=20.2x    frame=18479 fps=484 q=-0.0 size=N/A time=00:12:50.72 bitrate=N/A speed=20.2x    frame=18736 fps=484 q=-0.0 size=N/A time=00:13:01.44 bitrate=N/A speed=20.2x    frame=18975 fps=484 q=-0.0 size=N/A time=00:13:11.41 bitrate=N/A speed=20.2x    frame=19229 fps=484 q=-0.0 size=N/A time=00:13:22.00 bitrate=N/A speed=20.2x    frame=19464 fps=484 q=-0.0 size=N/A time=00:13:31.81 bitrate=N/A speed=20.2x    frame=19691 fps=483 q=-0.0 size=N/A time=00:13:41.27 bitrate=N/A speed=20.2x    frame=19953 fps=484 q=-0.0 size=N/A time=00:13:52.20 bitrate=N/A speed=20.2x    frame=20203 fps=484 q=-0.0 size=N/A time=00:14:02.63 bitrate=N/A speed=20.2x    frame=20459 fps=484 q=-0.0 size=N/A time=00:14:13.31 bitrate=N/A speed=20.2x    frame=20721 fps=484 q=-0.0 size=N/A time=00:14:24.23 bitrate=N/A speed=20.2x    frame=20953 fps=484 q=-0.0 size=N/A time=00:14:33.91 bitrate=N/A speed=20.2x    frame=21227 fps=484 q=-0.0 size=N/A time=00:14:45.34 bitrate=N/A speed=20.2x    frame=21496 fps=485 q=-0.0 size=N/A time=00:14:56.56 bitrate=N/A speed=20.2x    frame=21773 fps=485 q=-0.0 size=N/A time=00:15:08.11 bitrate=N/A speed=20.2x    frame=22041 fps=486 q=-0.0 size=N/A time=00:15:19.29 bitrate=N/A speed=20.3x    frame=22329 fps=487 q=-0.0 size=N/A time=00:15:31.30 bitrate=N/A speed=20.3x    frame=22605 fps=487 q=-0.0 size=N/A time=00:15:42.81 bitrate=N/A speed=20.3x    frame=22881 fps=488 q=-0.0 size=N/A time=00:15:54.32 bitrate=N/A speed=20.3x    frame=23148 fps=488 q=-0.0 size=N/A time=00:16:05.46 bitrate=N/A speed=20.4x    frame=23432 fps=489 q=-0.0 size=N/A time=00:16:17.30 bitrate=N/A speed=20.4x    frame=23697 fps=489 q=-0.0 size=N/A time=00:16:28.36 bitrate=N/A speed=20.4x    frame=23972 fps=489 q=-0.0 size=N/A time=00:16:39.83 bitrate=N/A speed=20.4x    frame=24231 fps=490 q=-0.0 size=N/A time=00:16:50.63 bitrate=N/A speed=20.4x    frame=24510 fps=490 q=-0.0 size=N/A time=00:17:02.31 bitrate=N/A speed=20.4x    frame=24798 fps=491 q=-0.0 size=N/A time=00:17:14.28 bitrate=N/A speed=20.5x    frame=25057 fps=491 q=-0.0 size=N/A time=00:17:25.08 bitrate=N/A speed=20.5x    frame=25325 fps=491 q=-0.0 size=N/A time=00:17:36.26 bitrate=N/A speed=20.5x    frame=25596 fps=492 q=-0.0 size=N/A time=00:17:47.56 bitrate=N/A speed=20.5x    frame=25869 fps=492 q=-0.0 size=N/A time=00:17:58.95 bitrate=N/A speed=20.5x    frame=26130 fps=492 q=-0.0 size=N/A time=00:18:09.83 bitrate=N/A speed=20.5x    frame=26403 fps=492 q=-0.0 size=N/A time=00:18:21.22 bitrate=N/A speed=20.5x    frame=26650 fps=492 q=-0.0 size=N/A time=00:18:31.52 bitrate=N/A speed=20.5x    frame=26937 fps=493 q=-0.0 size=N/A time=00:18:43.49 bitrate=N/A speed=20.6x    frame=27221 fps=493 q=-0.0 size=N/A time=00:18:55.34 bitrate=N/A speed=20.6x    frame=27478 fps=493 q=-0.0 size=N/A time=00:19:06.06 bitrate=N/A speed=20.6x    frame=27739 fps=494 q=-0.0 size=N/A time=00:19:16.94 bitrate=N/A speed=20.6x    frame=28003 fps=494 q=-0.0 size=N/A time=00:19:27.95 bitrate=N/A speed=20.6x    frame=28288 fps=494 q=-0.0 size=N/A time=00:19:39.84 bitrate=N/A speed=20.6x    frame=28563 fps=495 q=-0.0 size=N/A time=00:19:51.31 bitrate=N/A speed=20.6x    frame=28831 fps=495 q=-0.0 size=N/A time=00:20:02.49 bitrate=N/A speed=20.6x    frame=29120 fps=495 q=-0.0 size=N/A time=00:20:14.54 bitrate=N/A speed=20.7x    frame=29383 fps=495 q=-0.0 size=N/A time=00:20:25.51 bitrate=N/A speed=20.7x    frame=29644 fps=495 q=-0.0 size=N/A time=00:20:36.40 bitrate=N/A speed=20.7x    frame=29916 fps=496 q=-0.0 size=N/A time=00:20:47.74 bitrate=N/A speed=20.7x    frame=30192 fps=496 q=-0.0 size=N/A time=00:20:59.25 bitrate=N/A speed=20.7x    frame=30440 fps=496 q=-0.0 size=N/A time=00:21:09.60 bitrate=N/A speed=20.7x    frame=30687 fps=496 q=-0.0 size=N/A time=00:21:19.90 bitrate=N/A speed=20.7x    frame=30963 fps=496 q=-0.0 size=N/A time=00:21:31.41 bitrate=N/A speed=20.7x    frame=31232 fps=496 q=-0.0 size=N/A time=00:21:42.63 bitrate=N/A speed=20.7x    frame=31480 fps=496 q=-0.0 size=N/A time=00:21:52.97 bitrate=N/A speed=20.7x    frame=31736 fps=496 q=-0.0 size=N/A time=00:22:03.65 bitrate=N/A speed=20.7x    frame=31992 fps=496 q=-0.0 size=N/A time=00:22:14.33 bitrate=N/A speed=20.7x    frame=32260 fps=496 q=-0.0 size=N/A time=00:22:25.51 bitrate=N/A speed=20.7x    frame=32536 fps=497 q=-0.0 size=N/A time=00:22:37.02 bitrate=N/A speed=20.7x    frame=32807 fps=497 q=-0.0 size=N/A time=00:22:48.32 bitrate=N/A speed=20.7x    frame=33090 fps=497 q=-0.0 size=N/A time=00:23:00.12 bitrate=N/A speed=20.7x    frame=33373 fps=498 q=-0.0 size=N/A time=00:23:11.93 bitrate=N/A speed=20.8x    frame=33661 fps=498 q=-0.0 size=N/A time=00:23:23.94 bitrate=N/A speed=20.8x    frame=33917 fps=498 q=-0.0 size=N/A time=00:23:34.62 bitrate=N/A speed=20.8x    frame=34185 fps=498 q=-0.0 size=N/A time=00:23:45.79 bitrate=N/A speed=20.8x    [Parsed_psnr_10 @ 0000012bdb6be940] PSNR y:49.351217 u:50.738839 v:51.836419 average:49.897545 min:42.673996 max:inf
[out#0/null @ 0000012bdae45580] video:14697KiB audio:267524KiB subtitle:0KiB other streams:0KiB global headers:0KiB muxing overhead: unknown
frame=34205 fps=499 q=-0.0 Lsize=N/A time=00:23:46.63 bitrate=N/A speed=20.8x    
